<?xml version="1.0" standalone="no"?>
<!DOCTYPE svg PUBLIC "-//W3C//DTD SVG 20010904//EN"
 "http://www.w3.org/TR/2001/REC-SVG-20010904/DTD/svg10.dtd">
<svg version="1.0" xmlns="http://www.w3.org/2000/svg"
 width="500.000000pt" height="500.000000pt" viewBox="0 0 500.000000 500.000000"
 preserveAspectRatio="xMidYMid meet">

<g transform="translate(0.000000,500.000000) scale(0.100000,-0.100000)"
fill="#000000" stroke="none">
<path d="M0 2500 l0 -2500 2500 0 2500 0 0 2500 0 2500 -2500 0 -2500 0 0
-2500z m1928 1049 l2 -925 -35 -17 c-20 -9 -39 -17 -44 -17 -13 0 -23 949 -15
1440 l7 451 41 -3 41 -3 3 -926z m177 384 c4 -302 5 -694 1 -873 l-7 -325 -32
-27 c-17 -15 -38 -28 -44 -28 -10 0 -13 185 -13 893 0 492 3 897 7 900 3 4 23
7 43 7 l38 0 7 -547z m601 514 c200 -57 371 -238 419 -439 17 -74 19 -196 4
-270 -16 -81 -83 -208 -145 -276 -120 -133 -255 -191 -466 -200 l-127 -5 -6
26 c-15 59 -11 61 131 69 192 10 287 52 385 170 89 107 129 212 129 341 0 172
-83 331 -226 433 -100 71 -126 77 -389 83 l-230 6 -3 28 c-7 61 -14 60 241 54
162 -3 247 -9 283 -20z m-103 -183 c33 -8 81 -26 106 -39 61 -30 136 -112 169
-183 23 -50 26 -70 27 -162 0 -97 -2 -110 -31 -170 -40 -82 -110 -152 -194
-193 -56 -26 -76 -31 -145 -31 l-80 -1 0 39 0 40 66 12 c82 15 133 41 181 91
56 58 82 124 82 208 0 118 -60 215 -169 273 -48 26 -58 27 -230 30 -104 2
-185 8 -192 14 -14 11 -18 70 -6 81 3 4 85 7 181 7 126 0 191 -4 235 -16z
m680 -511 c17 -188 -46 -357 -188 -498 -145 -145 -308 -203 -498 -177 -45 6
-95 16 -112 23 l-30 12 35 7 c19 5 71 13 115 18 92 13 185 41 269 83 208 105
344 313 371 565 7 57 10 65 20 51 7 -9 15 -47 18 -84z m-1017 -30 c5 -27 8
-219 9 -429 l0 -381 -39 -47 c-24 -30 -42 -44 -48 -38 -12 12 -7 911 5 930 5
6 21 12 37 12 27 0 29 -4 36 -47z m755 -1463 c24 0 32 -30 14 -50 -14 -16 -14
-18 0 -23 31 -13 11 -67 -26 -67 -9 0 -20 -7 -23 -16 -9 -22 -7 -387 2 -400 4
-6 19 -14 35 -18 18 -4 27 -13 27 -26 0 -11 -12 -26 -27 -34 -26 -14 -27 -15
-5 -16 16 0 22 -6 22 -24 0 -13 -7 -27 -16 -30 -26 -10 -214 -7 -235 4 -23 13
-25 38 -3 47 15 6 15 7 0 19 -25 18 -17 57 14 64 34 8 38 30 39 220 1 181 -3
210 -28 210 -37 0 -57 54 -26 67 14 5 14 8 -1 24 -39 43 10 60 151 53 39 -2
77 -4 86 -4z m313 3 c86 -7 106 -23 68 -53 -21 -18 -21 -18 -1 -23 15 -4 20
-12 17 -29 -3 -20 -10 -24 -63 -30 -74 -10 -89 -26 -81 -87 3 -25 8 -46 10
-48 2 -2 32 -10 67 -17 70 -14 86 -33 49 -59 l-22 -15 22 -7 c14 -5 20 -13 18
-28 -3 -19 -13 -23 -73 -32 l-70 -10 -7 -40 c-4 -22 -7 -71 -8 -110 0 -88 -8
-115 -30 -115 -19 0 -29 25 -31 80 -1 31 -3 28 -13 -20 -9 -44 -15 -55 -31
-55 -28 0 -33 54 -34 386 -1 289 1 302 44 312 32 7 86 8 169 0z m414 -8 c23
-8 12 -36 -19 -47 l-31 -11 32 -13 c40 -17 37 -45 -7 -56 l-32 -8 -3 -78 c-2
-42 -2 -138 0 -213 l3 -135 32 -10 c47 -13 43 -44 -8 -60 -33 -10 -35 -12 -14
-13 36 -1 67 -26 52 -42 -14 -14 -175 -25 -228 -15 -30 6 -36 11 -33 29 2 13
13 24 28 28 l25 6 -27 7 c-15 5 -29 15 -33 24 -7 18 19 42 45 42 14 0 18 14
23 68 9 86 9 208 1 294 -7 64 -8 67 -36 73 -39 9 -47 33 -20 56 26 20 28 29 8
29 -19 0 -28 14 -20 34 4 10 23 16 62 18 62 3 179 -1 200 -7z m-2442 -27 c100
-50 179 -180 169 -280 -8 -91 -36 -130 -182 -258 -15 -12 -23 -31 -23 -52 0
-52 -11 -78 -31 -78 -14 0 -19 11 -24 48 -10 70 -12 72 -20 14 -8 -54 -26 -75
-47 -54 -12 12 -14 639 -2 675 5 17 12 19 60 14 30 -3 75 -16 100 -29z m278
10 c3 -13 6 -38 6 -55 0 -18 5 -33 10 -33 6 0 10 19 10 43 0 49 12 72 32 64
18 -6 28 -144 28 -378 0 -178 4 -189 68 -189 62 0 113 -12 119 -28 8 -19 -22
-42 -56 -43 -20 -1 -18 -3 9 -8 26 -4 36 -12 38 -28 3 -18 -3 -23 -31 -28 -45
-9 -263 -2 -273 8 -6 6 -26 306 -26 397 -1 48 22 282 28 291 10 17 32 9 38
-13z m569 8 c41 -17 91 -74 106 -119 7 -20 16 -64 20 -99 7 -55 9 -58 11 -23
l3 40 7 -40 c7 -38 7 -38 9 -8 0 17 6 44 12 60 6 15 15 59 20 98 5 38 12 77
15 87 7 22 32 23 56 2 16 -16 18 -16 24 0 10 26 50 19 78 -14 l25 -31 16 31
c20 38 50 40 60 3 l7 -28 14 28 c17 31 38 35 50 10 11 -24 17 -554 7 -623 -7
-46 -12 -56 -30 -58 -18 -3 -23 3 -29 33 -8 45 -20 34 -23 -23 -1 -8 -10 -12
-23 -10 -20 3 -25 13 -37 81 -11 62 -16 77 -31 77 -15 0 -20 -15 -31 -77 -12
-67 -17 -78 -34 -78 -14 0 -23 10 -31 34 l-11 34 -7 -36 c-5 -27 -12 -37 -26
-37 -10 0 -21 3 -23 8 -3 4 -11 57 -18 117 -7 61 -16 112 -20 115 -4 3 -9 16
-12 30 -4 23 -4 22 -6 -5 -1 -19 -4 -26 -9 -17 -5 7 -14 -35 -21 -100 -7 -62
-15 -121 -18 -131 -7 -26 -47 -18 -51 11 -4 29 -20 29 -24 0 -3 -26 -36 -37
-49 -16 -5 7 -9 25 -9 40 0 33 -9 58 -22 58 -5 0 -6 -6 -2 -12 6 -10 4 -10 -8
0 -20 16 -28 6 -43 -53 -14 -52 -40 -58 -59 -14 l-14 32 -7 -32 c-5 -25 -11
-32 -28 -29 -17 2 -23 13 -30 48 -11 65 -1 499 13 535 35 92 143 139 233 101z
m-1321 -970 c11 -16 10 -62 -3 -89 -9 -20 -7 -32 10 -66 18 -34 19 -41 6 -41
-8 0 -25 20 -37 45 -12 25 -26 45 -30 45 -4 0 -8 -20 -8 -45 0 -33 -4 -45 -15
-45 -12 0 -15 18 -15 104 0 101 1 105 23 109 28 5 60 -2 69 -17z m145 0 c-2
-6 -13 -10 -25 -9 -33 4 -43 -20 -40 -89 3 -57 5 -63 26 -66 20 -3 22 1 22 37
0 30 4 41 16 41 12 0 14 -10 12 -52 l-3 -53 -40 0 c-49 0 -65 25 -65 102 0 89
19 115 78 105 13 -3 21 -10 19 -16z m1473 14 c16 0 32 -73 28 -126 -6 -67 -20
-84 -69 -84 l-39 0 0 104 c0 101 1 105 23 109 12 2 28 3 35 1 8 -2 17 -4 22
-4z m161 -27 c15 -39 11 -136 -7 -161 -20 -28 -69 -30 -84 -3 -14 28 -13 154
3 173 26 34 73 29 88 -9z m186 13 c-2 -6 -15 -12 -29 -14 -21 -3 -27 -10 -33
-39 -3 -19 -3 -53 0 -74 6 -35 10 -39 36 -39 19 0 29 -5 29 -15 0 -20 -63 -20
-79 -1 -33 40 -20 191 17 198 28 6 63 -4 59 -16z m125 -3 c18 -22 17 -156 -1
-177 -9 -11 -26 -16 -45 -14 -43 4 -58 37 -53 117 2 51 7 67 25 81 24 20 54
17 74 -7z m-2222 -2 c5 -11 10 -50 10 -86 0 -82 -11 -105 -50 -105 -41 0 -60
32 -60 102 0 80 15 108 56 108 23 0 37 -6 44 -19z m385 -3 c43 -189 43 -189
27 -186 -9 2 -20 18 -24 36 -12 44 -42 40 -46 -6 -4 -35 -32 -46 -32 -13 0 18
24 132 36 174 8 24 33 21 39 -5z m111 -48 l22 -65 1 68 c1 52 4 67 16 67 12 0
15 -18 15 -106 0 -94 -2 -105 -17 -102 -12 2 -24 25 -38 68 l-20 65 -3 -67
c-2 -48 -7 -68 -16 -68 -10 0 -13 26 -14 106 -1 92 1 105 15 102 10 -2 25 -28
39 -68z m112 -38 c2 -86 0 -102 -13 -102 -12 0 -15 17 -15 106 0 80 3 105 13
102 8 -3 13 -36 15 -106z m92 26 c-17 -45 -30 -85 -30 -90 0 -4 11 -8 25 -8
16 0 25 -6 25 -15 0 -11 -12 -15 -45 -15 -25 0 -45 4 -45 9 0 5 14 46 30 91
17 45 30 83 30 86 0 2 -13 4 -30 4 -16 0 -30 5 -30 10 0 6 22 10 50 10 l50 0
-30 -82z m131 -3 c11 -44 21 -90 24 -102 9 -38 -23 -28 -33 9 -12 47 -39 49
-48 4 -3 -21 -12 -36 -20 -36 -18 0 -18 9 7 118 28 119 44 121 70 7z m189 75
c0 -5 -7 -10 -15 -10 -12 0 -15 -17 -15 -95 0 -78 -3 -95 -15 -95 -12 0 -15
17 -15 95 0 88 -1 95 -20 95 -11 0 -20 5 -20 10 0 6 23 10 50 10 28 0 50 -4
50 -10z m50 -57 c0 -87 7 -113 31 -113 17 0 19 9 19 90 0 73 3 90 15 90 12 0
15 -17 15 -94 0 -105 -8 -119 -61 -114 -40 4 -47 21 -48 131 -1 62 2 77 14 77
12 0 15 -14 15 -67z m213 21 l23 -46 18 46 c10 25 24 46 32 46 11 0 14 -21 14
-106 0 -80 -3 -105 -12 -102 -8 3 -14 29 -16 68 -3 57 -4 62 -15 40 -18 -35
-31 -34 -49 2 l-17 33 0 -72 c-1 -58 -4 -73 -16 -73 -12 0 -15 18 -15 105 0
122 14 137 53 59z m149 -41 c3 -80 5 -88 23 -88 18 0 20 8 23 88 2 68 6 87 17
87 12 0 15 -17 15 -86 0 -104 -9 -124 -55 -124 -46 0 -55 20 -55 124 0 69 3
86 15 86 11 0 15 -19 17 -87z m154 17 l22 -65 1 68 c1 52 4 67 16 67 12 0 15
-18 15 -106 0 -94 -2 -105 -17 -102 -12 2 -24 25 -38 68 l-20 65 -3 -67 c-2
-52 -6 -68 -17 -68 -12 0 -15 20 -15 106 0 93 2 105 17 102 10 -2 25 -27 39
-68z m728 0 l21 -65 3 68 c2 48 7 67 15 64 8 -2 13 -37 15 -105 2 -94 1 -102
-16 -102 -15 0 -24 15 -40 68 l-20 67 -1 -67 c-1 -53 -4 -68 -16 -68 -12 0
-15 18 -15 106 0 94 2 105 17 102 11 -2 24 -26 37 -68z m166 -35 c0 -87 -3
-105 -15 -105 -12 0 -15 18 -15 105 0 87 3 105 15 105 12 0 15 -18 15 -105z
m79 43 l19 -63 1 63 c1 48 4 62 16 62 12 0 15 -18 15 -105 0 -86 -3 -105 -15
-105 -9 0 -21 23 -34 63 l-19 62 -1 -62 c-1 -49 -4 -63 -16 -63 -12 0 -15 18
-15 105 0 86 3 105 15 105 9 0 21 -23 34 -62z m171 53 c0 -5 -9 -11 -20 -14
-18 -5 -20 -14 -20 -96 0 -74 -3 -91 -15 -91 -12 0 -15 17 -15 95 0 78 -3 95
-15 95 -8 0 -15 5 -15 10 0 6 23 10 50 10 28 0 50 -4 50 -9z m110 -1 c0 -5
-13 -10 -30 -10 -27 0 -30 -3 -30 -29 0 -25 5 -30 27 -33 39 -4 42 -28 4 -28
-29 0 -31 -3 -31 -35 0 -32 2 -35 30 -35 20 0 30 -5 30 -15 0 -11 -12 -15 -45
-15 l-45 0 0 105 0 105 45 0 c25 0 45 -4 45 -10z m60 -80 c0 -89 0 -90 25 -90
16 0 25 -6 25 -15 0 -11 -11 -15 -40 -15 l-40 0 0 105 c0 87 3 105 15 105 12
0 15 -17 15 -90z m110 -15 c0 -87 -3 -105 -15 -105 -12 0 -15 18 -15 105 0 87
3 105 15 105 12 0 15 -18 15 -105z m120 90 c-3 -5 -14 -9 -24 -7 -28 4 -36
-15 -36 -84 0 -42 5 -65 15 -74 17 -14 22 -6 27 44 2 16 9 31 16 34 8 3 12
-12 12 -52 l0 -56 -40 0 c-50 0 -60 17 -60 105 0 88 11 107 58 103 21 -2 35
-7 32 -13z m130 6 c0 -5 -12 -11 -27 -13 -22 -2 -29 -9 -31 -30 -3 -25 0 -28
27 -28 21 0 31 -5 31 -15 0 -10 -10 -15 -30 -15 -28 0 -30 -3 -30 -35 0 -33 2
-35 35 -35 24 0 35 -5 35 -15 0 -11 -12 -15 -50 -15 l-50 0 0 105 0 105 45 0
c25 0 45 -4 45 -9z m78 -58 l21 -68 0 68 c1 53 4 67 16 67 12 0 15 -18 15
-106 0 -92 -2 -105 -16 -102 -10 2 -23 25 -34 58 l-17 55 -4 -54 c-2 -32 -9
-56 -16 -59 -10 -3 -13 22 -13 102 0 129 16 142 48 39z m170 55 c-3 -7 -17
-14 -32 -16 -27 -3 -27 -4 -24 -75 3 -70 4 -72 31 -75 41 -5 35 -32 -8 -32
-24 0 -37 6 -45 19 -14 27 -13 164 2 179 16 16 81 16 76 0z m60 -96 c2 -86 0
-102 -13 -102 -12 0 -15 17 -15 106 0 80 3 105 13 102 8 -3 13 -36 15 -106z
m115 26 c10 -46 21 -93 24 -105 4 -16 1 -23 -10 -23 -10 0 -18 13 -23 35 -4
24 -12 35 -24 35 -12 0 -20 -11 -24 -35 -5 -22 -13 -35 -23 -35 -11 0 -14 6
-10 23 3 12 13 59 23 105 13 61 21 82 33 82 12 0 21 -21 34 -82z"/>
<path d="M1200 2185 c0 -9 6 -12 15 -9 8 4 12 10 9 15 -8 14 -24 10 -24 -6z"/>
<path d="M770 1235 c0 -29 3 -36 18 -33 11 2 17 13 17 33 0 20 -6 31 -17 33
-15 3 -18 -4 -18 -33z"/>
<path d="M2400 1185 c0 -47 3 -85 8 -85 23 1 36 24 40 73 5 58 -9 97 -33 97
-12 0 -15 -17 -15 -85z"/>
<path d="M2551 1256 c-7 -9 -11 -39 -9 -78 3 -55 5 -63 23 -63 18 0 20 8 23
66 2 47 -1 69 -11 78 -11 9 -17 8 -26 -3z"/>
<path d="M2860 1251 c-11 -21 -14 -100 -4 -125 9 -24 41 -19 48 7 14 52 -1
137 -23 137 -6 0 -15 -9 -21 -19z"/>
<path d="M642 1258 c-19 -19 -16 -137 4 -145 8 -3 20 -1 26 5 12 12 14 97 3
130 -7 25 -16 27 -33 10z"/>
<path d="M1058 1205 c-3 -16 -1 -25 7 -25 8 0 10 9 7 25 -2 14 -6 25 -7 25 -1
0 -5 -11 -7 -25z"/>
<path d="M1491 1208 c-1 -16 4 -28 9 -28 12 0 12 8 0 35 -8 18 -9 17 -9 -7z"/>
<path d="M4340 1201 c0 -12 5 -21 10 -21 6 0 10 6 10 14 0 8 -4 18 -10 21 -5
3 -10 -3 -10 -14z"/>
</g>
</svg>
